ffmpeg started on 2016-12-08 at 10:42:23
Report written to "Output/x264/results/ffmpeg/sintelveryslow1000k.log"
Command line:
Tools/ffmpeg/ffmpeg -benchmark -y -i Input/y4m/sintel.y4m -c:v libx264 -preset veryslow -b:v 1000k -an Output/x264/encoded/sintelveryslow1000k.mkv
ffmpeg version N-82227-gdb23fde Copyright (c) 2000-2016 the FFmpeg developers
  built with gcc 5.4.0 (Ubuntu 5.4.0-6ubuntu1~16.04.2) 20160609
  configuration: --prefix=/home/jaroslav/ffmpeg_build --pkg-config-flags=--static --extra-cflags=-I/home/jaroslav/ffmpeg_build/include --extra-ldflags=-L/home/jaroslav/ffmpeg_build/lib --bindir=/home/jaroslav/bin --enable-gpl --enable-libass --enable-libfdk-aac --enable-libfreetype --enable-libmp3lame --enable-libopus --enable-libtheora --enable-libvorbis --enable-libvpx --enable-libx264 --enable-libx265 --enable-nvenc --enable-libmfx --enable-libxvid --enable-libgsm --enable-libopencore-amrnb --enable-version3 --enable-nonfree
  libavutil      55. 35.100 / 55. 35.100
  libavcodec     57. 66.101 / 57. 66.101
  libavformat    57. 57.100 / 57. 57.100
  libavdevice    57.  2.100 / 57.  2.100
  libavfilter     6. 66.100 /  6. 66.100
  libswscale      4.  3.100 /  4.  3.100
  libswresample   2.  4.100 /  2.  4.100
  libpostproc    54.  2.100 / 54.  2.100
Input #0, yuv4mpegpipe, from 'Input/y4m/sintel.y4m':
  Duration: 00:00:20.83, start: 0.000000, bitrate: 2057307 kb/s
    Stream #0:0: Video: rawvideo (I420 / 0x30323449), yuv420p(progressive), 4096x1744, SAR 1:1 DAR 256:109, 24 fps, 24 tbr, 24 tbn, 24 tbc
[libx264 @ 0x45d01c0] using SAR=1/1
[libx264 @ 0x45d01c0] DPB size (16 frames, 446464 mbs) > level limit (6 frames, 184320 mbs)
[libx264 @ 0x45d01c0] using cpu capabilities: MMX2 SSE2Fast SSSE3 SSE4.2 AVX FMA3 AVX2 LZCNT BMI2
[libx264 @ 0x45d01c0] profile High, level 5.2
[libx264 @ 0x45d01c0] 264 - core 148 - H.264/MPEG-4 AVC codec - Copyleft 2003-2016 - http://www.videolan.org/x264.html - options: cabac=1 ref=16 deblock=1:0:0 analyse=0x3:0x133 me=umh subme=10 psy=1 psy_rd=1.00:0.00 mixed_ref=1 me_range=24 chroma_me=1 trellis=2 8x8dct=1 cqm=0 deadzone=21,11 fast_pskip=1 chroma_qp_offset=-2 threads=6 lookahead_threads=1 sliced_threads=0 nr=0 decimate=1 interlaced=0 bluray_compat=0 constrained_intra=0 bframes=8 b_pyramid=2 b_adapt=2 b_bias=0 direct=3 weightb=1 open_gop=0 weightp=2 keyint=250 keyint_min=24 scenecut=40 intra_refresh=0 rc_lookahead=60 rc=abr mbtree=1 bitrate=1000 ratetol=1.0 qcomp=0.60 qpmin=0 qpmax=69 qpstep=4 ip_ratio=1.40 aq=1:1.00
Output #0, matroska, to 'Output/x264/encoded/sintelveryslow1000k.mkv':
  Metadata:
    encoder         : Lavf57.57.100
    Stream #0:0: Video: h264 (libx264) (H264 / 0x34363248), yuv420p, 4096x1744 [SAR 1:1 DAR 256:109], q=-1--1, 1000 kb/s, 24 fps, 1k tbn, 24 tbc
    Metadata:
      encoder         : Lavc57.66.101 libx264
    Side data:
      cpb: bitrate max/min/avg: 0/0/1000000 buffer size: 0 vbv_delay: -1
Stream mapping:
  Stream #0:0 -> #0:0 (rawvideo (native) -> h264 (libx264))
Press [q] to stop, [?] for help
frame=    7 fps=0.0 q=0.0 size=       0kB time=00:00:00.00 bitrate=N/A speed=   0x    frame=   15 fps= 13 q=0.0 size=       0kB time=00:00:00.00 bitrate=N/A speed=   0x    frame=   19 fps= 11 q=0.0 size=       0kB time=00:00:00.00 bitrate=N/A speed=   0x    frame=   27 fps= 12 q=0.0 size=       0kB time=00:00:00.00 bitrate=N/A speed=   0x    frame=   35 fps= 13 q=0.0 size=       0kB time=00:00:00.00 bitrate=N/A speed=   0x    frame=   42 fps=7.2 q=0.0 size=       0kB time=00:00:00.00 bitrate=N/A speed=   0x    frame=   43 fps=4.8 q=0.0 size=       0kB time=00:00:00.00 bitrate=N/A speed=   0x    frame=   44 fps=3.8 q=0.0 size=       0kB time=00:00:00.00 bitrate=N/A speed=   0x    frame=   52 fps=4.3 q=0.0 size=       0kB time=00:00:00.00 bitrate=N/A speed=   0x    frame=   56 fps=4.4 q=0.0 size=       0kB time=00:00:00.00 bitrate=N/A speed=   0x    frame=   64 fps=4.7 q=0.0 size=       0kB time=00:00:00.00 bitrate=N/A speed=   0x    frame=   68 fps=4.8 q=0.0 size=       0kB time=00:00:00.00 bitrate=N/A speed=   0x    frame=   72 fps=2.3 q=0.0 size=       0kB time=00:00:00.00 bitrate=N/A speed=   0x    frame=   76 fps=2.3 q=44.0 size=       1kB time=-00:00:00.08 bitrate=N/A speed=N/A    frame=   79 fps=2.3 q=49.0 size=       1kB time=00:00:00.04 bitrate= 136.9kbits/s speed=0.00126x    frame=   81 fps=2.3 q=54.0 size=       1kB time=00:00:00.12 bitrate=  46.7kbits/s speed=0.00361x    frame=   84 fps=2.3 q=57.0 size=       1kB time=00:00:00.25 bitrate=  23.5kbits/s speed=0.00696x    frame=   86 fps=2.3 q=58.0 size=       1kB time=00:00:00.33 bitrate=  17.6kbits/s speed=0.00906x    frame=   88 fps=2.3 q=58.0 size=       1kB time=00:00:00.41 bitrate=  14.1kbits/s speed=0.0111x    frame=   89 fps=2.3 q=59.0 size=       1kB time=00:00:00.45 bitrate=  12.8kbits/s speed=0.0119x    frame=   90 fps=2.3 q=60.0 size=       1kB time=00:00:00.50 bitrate=  11.8kbits/s speed=0.0126x    frame=   91 fps=2.3 q=61.0 size=       1kB time=00:00:00.54 bitrate=  10.8kbits/s speed=0.0135x    frame=   92 fps=2.2 q=61.0 size=       1kB time=00:00:00.58 bitrate=  10.1kbits/s speed=0.0139x    frame=   93 fps=2.2 q=62.0 size=       1kB time=00:00:00.62 bitrate=   9.4kbits/s speed=0.0145x    frame=   95 fps=2.2 q=62.0 size=       1kB time=00:00:00.70 bitrate=   8.3kbits/s speed=0.0162x    frame=   96 fps=2.1 q=62.0 size=       1kB time=00:00:00.75 bitrate=   7.8kbits/s speed=0.0165x    frame=   97 fps=2.1 q=63.0 size=       1kB time=00:00:00.79 bitrate=   7.4kbits/s speed=0.017x    frame=   98 fps=2.1 q=64.0 size=       1kB time=00:00:00.83 bitrate=   7.1kbits/s speed=0.0175x    frame=   99 fps=2.0 q=64.0 size=       1kB time=00:00:00.87 bitrate=   6.7kbits/s speed=0.0181x    frame=  101 fps=2.0 q=65.0 size=       1kB time=00:00:00.95 bitrate=   6.1kbits/s speed=0.0191x    frame=  103 fps=2.0 q=65.0 size=       1kB time=00:00:01.04 bitrate=   5.6kbits/s speed=0.0204x    frame=  105 fps=2.0 q=65.0 size=       1kB time=00:00:01.12 bitrate=   5.2kbits/s speed=0.0218x    frame=  106 fps=2.0 q=65.0 size=       1kB time=00:00:01.16 bitrate=   5.0kbits/s speed=0.0223x    frame=  107 fps=2.0 q=66.0 size=       1kB time=00:00:01.20 bitrate=   4.9kbits/s speed=0.0227x    frame=  108 fps=2.0 q=66.0 size=       1kB time=00:00:01.25 bitrate=   4.7kbits/s speed=0.0229x    frame=  110 fps=2.0 q=66.0 size=       1kB time=00:00:01.33 bitrate=   4.4kbits/s speed=0.0239x    frame=  111 fps=2.0 q=66.0 size=       1kB time=00:00:01.37 bitrate=   4.3kbits/s speed=0.0244x    frame=  113 fps=1.9 q=67.0 size=       1kB time=00:00:01.45 bitrate=   4.0kbits/s speed=0.0251x    frame=  115 fps=2.0 q=67.0 size=       1kB time=00:00:01.54 bitrate=   3.8kbits/s speed=0.0262x    frame=  116 fps=1.9 q=68.0 size=       1kB time=00:00:01.58 bitrate=   3.7kbits/s speed=0.0266x    frame=  118 fps=2.0 q=68.0 size=       1kB time=00:00:01.66 bitrate=   3.5kbits/s speed=0.0277x    frame=  120 fps=2.0 q=68.0 size=       1kB time=00:00:01.75 bitrate=   3.4kbits/s speed=0.0286x    frame=  121 fps=2.0 q=68.0 size=       1kB time=00:00:01.79 bitrate=   3.3kbits/s speed=0.029x    frame=  123 fps=2.0 q=68.0 size=       1kB time=00:00:01.87 bitrate=   3.1kbits/s speed=0.0301x    frame=  124 fps=2.0 q=69.0 size=       1kB time=00:00:01.91 bitrate=   3.1kbits/s speed=0.0305x    frame=  125 fps=2.0 q=69.0 size=       1kB time=00:00:01.95 bitrate=   3.0kbits/s speed=0.0308x    frame=  126 fps=2.0 q=69.0 size=       1kB time=00:00:02.00 bitrate=   2.9kbits/s speed=0.0312x    frame=  127 fps=2.0 q=69.0 size=       1kB time=00:00:02.04 bitrate=   2.9kbits/s speed=0.0316x    frame=  128 fps=2.0 q=69.0 size=       1kB time=00:00:02.08 bitrate=   2.8kbits/s speed=0.0318x    frame=  129 fps=1.9 q=69.0 size=       1kB time=00:00:02.12 bitrate=   2.8kbits/s speed=0.0321x    frame=  130 fps=1.9 q=69.0 size=       1kB time=00:00:02.16 bitrate=   2.7kbits/s speed=0.0323x    frame=  131 fps=1.9 q=69.0 size=       1kB time=00:00:02.20 bitrate=   2.7kbits/s speed=0.0325x    frame=  132 fps=1.9 q=69.0 size=       1kB time=00:00:02.25 bitrate=   2.6kbits/s speed=0.0326x    frame=  134 fps=1.9 q=69.0 size=       1kB time=00:00:02.33 bitrate=   2.5kbits/s speed=0.0332x    frame=  135 fps=1.9 q=69.0 size=       1kB time=00:00:02.37 bitrate=   2.5kbits/s speed=0.0335x    frame=  136 fps=1.9 q=69.0 size=       1kB time=00:00:02.41 bitrate=   2.4kbits/s speed=0.0339x    frame=  137 fps=1.9 q=69.0 size=       1kB time=00:00:02.45 bitrate=   2.4kbits/s speed=0.0339x    frame=  138 fps=1.9 q=69.0 size=       1kB time=00:00:02.50 bitrate=   2.4kbits/s speed=0.0338x    frame=  139 fps=1.9 q=69.0 size=       1kB time=00:00:02.54 bitrate=   2.3kbits/s speed=0.034x    frame=  140 fps=1.9 q=69.0 size=       1kB time=00:00:02.58 bitrate=   2.3kbits/s speed=0.0343x    frame=  141 fps=1.9 q=69.0 size=       1kB time=00:00:02.62 bitrate=   2.2kbits/s speed=0.0345x    frame=  142 fps=1.8 q=69.0 size=       1kB time=00:00:02.66 bitrate=   2.2kbits/s speed=0.0343x    frame=  144 fps=1.8 q=69.0 size=       1kB time=00:00:02.75 bitrate=   2.1kbits/s speed=0.0351x    frame=  146 fps=1.8 q=69.0 size=       1kB time=00:00:02.83 bitrate=   2.1kbits/s speed=0.0358x    frame=  147 fps=1.8 q=69.0 size=       1kB time=00:00:02.87 bitrate=   2.0kbits/s speed=0.036x    frame=  148 fps=1.8 q=69.0 size=       1kB time=00:00:02.91 bitrate=   2.0kbits/s speed=0.0358x    frame=  149 fps=1.8 q=69.0 size=       1kB time=00:00:02.95 bitrate=   2.0kbits/s speed=0.036x    frame=  151 fps=1.8 q=69.0 size=       1kB time=00:00:03.04 bitrate=   1.9kbits/s speed=0.0366x    frame=  152 fps=1.8 q=69.0 size=       1kB time=00:00:03.08 bitrate=   1.9kbits/s speed=0.0366x    frame=  154 fps=1.8 q=69.0 size=       1kB time=00:00:03.16 bitrate=   1.9kbits/s speed=0.037x    frame=  155 fps=1.8 q=69.0 size=       1kB time=00:00:03.20 bitrate=   1.8kbits/s speed=0.0371x    frame=  156 fps=1.8 q=69.0 size=       1kB time=00:00:03.25 bitrate=   1.8kbits/s speed=0.0372x    frame=  157 fps=1.8 q=69.0 size=       1kB time=00:00:03.29 bitrate=   1.8kbits/s speed=0.0373x    frame=  158 fps=1.8 q=69.0 size=       1kB time=00:00:03.33 bitrate=   1.8kbits/s speed=0.0375x    frame=  160 fps=1.8 q=69.0 size=       1kB time=00:00:03.41 bitrate=   1.7kbits/s speed=0.0379x    frame=  161 fps=1.8 q=69.0 size=       1kB time=00:00:03.45 bitrate=   1.7kbits/s speed=0.0381x    frame=  162 fps=1.8 q=69.0 size=       1kB time=00:00:03.50 bitrate=   1.7kbits/s speed=0.0381x    frame=  163 fps=1.8 q=69.0 size=       1kB time=00:00:03.54 bitrate=   1.7kbits/s speed=0.038x    frame=  164 fps=1.7 q=69.0 size=       1kB time=00:00:03.58 bitrate=   1.6kbits/s speed=0.0381x    frame=  166 fps=1.7 q=69.0 size=       1kB time=00:00:03.66 bitrate=   1.6kbits/s speed=0.0383x    frame=  167 fps=1.7 q=69.0 size=       1kB time=00:00:03.70 bitrate=   1.6kbits/s speed=0.0385x    frame=  169 fps=1.7 q=69.0 size=       1kB time=00:00:03.79 bitrate=   1.6kbits/s speed=0.0391x    frame=  170 fps=1.7 q=69.0 size=       1kB time=00:00:03.83 bitrate=   1.5kbits/s speed=0.0393x    frame=  172 fps=1.7 q=69.0 size=       1kB time=00:00:03.91 bitrate=   1.5kbits/s speed=0.0392x    frame=  174 fps=1.7 q=69.0 size=       1kB time=00:00:04.00 bitrate=   1.5kbits/s speed=0.0398x    frame=  176 fps=1.7 q=69.0 size=       1kB time=00:00:04.08 bitrate=   1.4kbits/s speed=0.0404x    frame=  177 fps=1.7 q=69.0 size=       1kB time=00:00:04.12 bitrate=   1.4kbits/s speed=0.0406x    frame=  178 fps=1.7 q=69.0 size=       1kB time=00:00:04.16 bitrate=   1.4kbits/s speed=0.0404x    frame=  182 fps=1.7 q=69.0 size=       1kB time=00:00:04.33 bitrate=   1.4kbits/s speed=0.0414x    frame=  185 fps=1.8 q=69.0 size=       1kB time=00:00:04.45 bitrate=   1.3kbits/s speed=0.0424x    frame=  186 fps=1.8 q=69.0 size=       1kB time=00:00:04.50 bitrate=   1.3kbits/s speed=0.0425x    frame=  187 fps=1.8 q=69.0 size=       1kB time=00:00:04.54 bitrate=   1.3kbits/s speed=0.0426x    frame=  188 fps=1.7 q=69.0 size=       1kB time=00:00:04.58 bitrate=   1.3kbits/s speed=0.0426x    frame=  190 fps=1.8 q=69.0 size=       1kB time=00:00:04.66 bitrate=   1.3kbits/s speed=0.0431x    frame=  192 fps=1.7 q=69.0 size=       1kB time=00:00:04.75 bitrate=   1.2kbits/s speed=0.0428x    frame=  196 fps=1.8 q=69.0 size=    1034kB time=00:00:04.91 bitrate=1722.7kbits/s speed=0.0441x    frame=  199 fps=1.7 q=69.0 size=    1034kB time=00:00:05.04 bitrate=1680.0kbits/s speed=0.0443x    frame=  201 fps=1.8 q=69.0 size=    1034kB time=00:00:05.12 bitrate=1652.8kbits/s speed=0.0447x    frame=  202 fps=1.8 q=69.0 size=    1034kB time=00:00:05.16 bitrate=1639.4kbits/s speed=0.0448x    frame=  204 fps=1.8 q=69.0 size=    1034kB time=00:00:05.25 bitrate=1613.5kbits/s speed=0.0452x    frame=  205 fps=1.8 q=69.0 size=    1034kB time=00:00:05.29 bitrate=1600.7kbits/s speed=0.0452x    frame=  206 fps=1.7 q=69.0 size=    1034kB time=00:00:05.33 bitrate=1588.3kbits/s speed=0.0452x    frame=  207 fps=1.7 q=69.0 size=    1034kB time=00:00:05.37 bitrate=1575.9kbits/s speed=0.0453x    frame=  208 fps=1.7 q=69.0 size=    1034kB time=00:00:05.41 bitrate=1563.7kbits/s speed=0.0455x    frame=  210 fps=1.7 q=69.0 size=    1034kB time=00:00:05.50 bitrate=1540.1kbits/s speed=0.0458x    frame=  212 fps=1.7 q=69.0 size=    1034kB time=00:00:05.58 bitrate=1517.2kbits/s speed=0.0461x    frame=  213 fps=1.7 q=69.0 size=    1034kB time=00:00:05.62 bitrate=1505.9kbits/s speed=0.0461x    frame=  215 fps=1.8 q=69.0 size=    1034kB time=00:00:05.70 bitrate=1484.0kbits/s speed=0.0465x    frame=  216 fps=1.7 q=69.0 size=    1034kB time=00:00:05.75 bitrate=1473.2kbits/s speed=0.0465x    frame=  219 fps=1.8 q=69.0 size=    1034kB time=00:00:05.87 bitrate=1441.8kbits/s speed=0.0471x    frame=  221 fps=1.8 q=69.0 size=    1034kB time=00:00:05.95 bitrate=1421.8kbits/s speed=0.0474x    frame=  222 fps=1.8 q=69.0 size=    1034kB time=00:00:06.00 bitrate=1411.8kbits/s speed=0.0474x    frame=  223 fps=1.8 q=69.0 size=    1034kB time=00:00:06.04 bitrate=1402.0kbits/s speed=0.0475x    frame=  225 fps=1.8 q=69.0 size=    1034kB time=00:00:06.12 bitrate=1383.0kbits/s speed=0.0479x    frame=  226 fps=1.8 q=69.0 size=    1034kB time=00:00:06.16 bitrate=1373.6kbits/s speed=0.0479x    frame=  227 fps=1.8 q=69.0 size=    1034kB time=00:00:06.20 bitrate=1364.5kbits/s speed=0.048x    frame=  229 fps=1.8 q=69.0 size=    1034kB time=00:00:06.29 bitrate=1346.3kbits/s speed=0.0485x    frame=  233 fps=1.7 q=69.0 size=    1034kB time=00:00:06.45 bitrate=1311.7kbits/s speed=0.0482x    frame=  235 fps=1.7 q=69.0 size=    1034kB time=00:00:06.54 bitrate=1294.9kbits/s speed=0.0487x    frame=  238 fps=1.8 q=69.0 size=    1034kB time=00:00:06.66 bitrate=1270.6kbits/s speed=0.0493x    frame=  239 fps=1.7 q=69.0 size=    1034kB time=00:00:06.70 bitrate=1262.8kbits/s speed=0.0489x    frame=  242 fps=1.8 q=69.0 size=    1034kB time=00:00:06.83 bitrate=1239.7kbits/s speed=0.0495x    frame=  243 fps=1.8 q=69.0 size=    1034kB time=00:00:06.87 bitrate=1232.1kbits/s speed=0.0496x    frame=  244 fps=1.7 q=69.0 size=    1034kB time=00:00:06.91 bitrate=1224.7kbits/s speed=0.0496x    frame=  245 fps=1.7 q=69.0 size=    1034kB time=00:00:06.95 bitrate=1217.5kbits/s speed=0.0495x    frame=  247 fps=1.7 q=69.0 size=    1034kB time=00:00:07.04 bitrate=1202.9kbits/s speed=0.0496x    frame=  249 fps=1.7 q=69.0 size=    1034kB time=00:00:07.12 bitrate=1188.9kbits/s speed=0.0499x    frame=  251 fps=1.7 q=69.0 size=    1034kB time=00:00:07.20 bitrate=1175.2kbits/s speed=0.05x    frame=  252 fps=1.7 q=69.0 size=    1034kB time=00:00:07.25 bitrate=1168.4kbits/s speed=0.0501x    frame=  254 fps=1.7 q=69.0 size=    1034kB time=00:00:07.33 bitrate=1155.2kbits/s speed=0.0502x    frame=  256 fps=1.7 q=69.0 size=    1034kB time=00:00:07.41 bitrate=1142.1kbits/s speed=0.0502x    frame=  259 fps=1.7 q=69.0 size=    1034kB time=00:00:07.54 bitrate=1123.2kbits/s speed=0.0508x    frame=  260 fps=1.7 q=69.0 size=    1034kB time=00:00:07.58 bitrate=1117.1kbits/s speed=0.0505x    frame=  264 fps=1.8 q=69.0 size=    1034kB time=00:00:07.75 bitrate=1093.1kbits/s speed=0.0514x    frame=  267 fps=1.7 q=69.0 size=    1034kB time=00:00:07.87 bitrate=1075.7kbits/s speed=0.0515x    frame=  272 fps=1.8 q=69.0 size=    1034kB time=00:00:08.08 bitrate=1048.0kbits/s speed=0.0526x    frame=  273 fps=1.8 q=69.0 size=    1034kB time=00:00:08.12 bitrate=1042.6kbits/s speed=0.0524x    frame=  274 fps=1.8 q=69.0 size=    1034kB time=00:00:08.16 bitrate=1037.2kbits/s speed=0.0525x    frame=  275 fps=1.8 q=69.0 size=    1034kB time=00:00:08.20 bitrate=1032.1kbits/s speed=0.0526x    frame=  276 fps=1.8 q=69.0 size=    1034kB time=00:00:08.25 bitrate=1026.8kbits/s speed=0.0526x    frame=  277 fps=1.8 q=69.0 size=    1034kB time=00:00:08.29 bitrate=1021.6kbits/s speed=0.0527x    frame=  278 fps=1.8 q=69.0 size=    1034kB time=00:00:08.33 bitrate=1016.6kbits/s speed=0.0527x    frame=  280 fps=1.8 q=69.0 size=    1034kB time=00:00:08.41 bitrate=1006.4kbits/s speed=0.0531x    frame=  283 fps=1.8 q=69.0 size=    1034kB time=00:00:08.54 bitrate= 991.7kbits/s speed=0.0537x    frame=  284 fps=1.8 q=69.0 size=    1034kB time=00:00:08.58 bitrate= 987.0kbits/s speed=0.0537x    frame=  286 fps=1.8 q=69.0 size=    1034kB time=00:00:08.66 bitrate= 977.4kbits/s speed=0.054x    frame=  289 fps=1.8 q=69.0 size=    1034kB time=00:00:08.79 bitrate= 963.5kbits/s speed=0.0545x    frame=  292 fps=1.8 q=69.0 size=    1034kB time=00:00:08.91 bitrate= 950.0kbits/s speed=0.0548x    frame=  298 fps=1.8 q=69.0 size=    1034kB time=00:00:09.16 bitrate= 924.1kbits/s speed=0.0557x    frame=  302 fps=1.8 q=69.0 size=    1034kB time=00:00:09.33 bitrate= 907.7kbits/s speed=0.0565x    frame=  307 fps=1.8 q=69.0 size=    1034kB time=00:00:09.54 bitrate= 887.8kbits/s speed=0.0574x    frame=  309 fps=1.9 q=69.0 size=    1034kB time=00:00:09.62 bitrate= 880.1kbits/s speed=0.0577x    frame=  312 fps=1.9 q=69.0 size=    1034kB time=00:00:09.75 bitrate= 868.9kbits/s speed=0.058x    frame=  315 fps=1.9 q=69.0 size=    1034kB time=00:00:09.87 bitrate= 857.9kbits/s speed=0.0585x    frame=  318 fps=1.9 q=69.0 size=    1804kB time=00:00:10.00 bitrate=1477.9kbits/s speed=0.0589x    frame=  320 fps=1.9 q=69.0 size=    1804kB time=00:00:10.08 bitrate=1465.7kbits/s speed=0.0592x    frame=  321 fps=1.9 q=66.0 size=    1804kB time=00:00:10.12 bitrate=1459.6kbits/s speed=0.0592x    frame=  324 fps=1.9 q=69.0 size=    1804kB time=00:00:10.25 bitrate=1441.8kbits/s speed=0.0596x    frame=  329 fps=1.9 q=69.0 size=    1839kB time=00:00:10.45 bitrate=1440.2kbits/s speed=0.0605x    frame=  331 fps=1.9 q=69.0 size=    1839kB time=00:00:10.54 bitrate=1428.8kbits/s speed=0.0608x    frame=  334 fps=1.9 q=69.0 size=    1839kB time=00:00:10.66 bitrate=1412.0kbits/s speed=0.0612x    frame=  337 fps=1.9 q=69.0 size=    1839kB time=00:00:10.79 bitrate=1395.7kbits/s speed=0.0616x    frame=  341 fps=1.9 q=69.0 size=    1839kB time=00:00:10.95 bitrate=1374.5kbits/s speed=0.0621x    frame=  344 fps=1.9 q=69.0 size=    1839kB time=00:00:11.08 bitrate=1359.0kbits/s speed=0.0625x    frame=  346 fps=1.9 q=69.0 size=    1839kB time=00:00:11.16 bitrate=1348.8kbits/s speed=0.0628x    frame=  348 fps=2.0 q=69.0 size=    1839kB time=00:00:11.25 bitrate=1338.8kbits/s speed=0.0631x    frame=  352 fps=2.0 q=69.0 size=    1839kB time=00:00:11.41 bitrate=1319.3kbits/s speed=0.0636x    frame=  353 fps=2.0 q=69.0 size=    1839kB time=00:00:11.45 bitrate=1314.5kbits/s speed=0.0637x    frame=  357 fps=2.0 q=69.0 size=    1839kB time=00:00:11.62 bitrate=1295.7kbits/s speed=0.0642x    frame=  360 fps=2.0 q=69.0 size=    1839kB time=00:00:11.75 bitrate=1281.9kbits/s speed=0.0646x    frame=  363 fps=2.0 q=69.0 size=    1839kB time=00:00:11.87 bitrate=1268.4kbits/s speed=0.065x    frame=  367 fps=2.0 q=69.0 size=    1839kB time=00:00:12.04 bitrate=1250.8kbits/s speed=0.0656x    frame=  371 fps=2.0 q=69.0 size=    1839kB time=00:00:12.20 bitrate=1233.8kbits/s speed=0.0661x    frame=  376 fps=2.0 q=69.0 size=    1839kB time=00:00:12.41 bitrate=1213.0kbits/s speed=0.0669x    frame=  377 fps=2.0 q=69.0 size=    1839kB time=00:00:12.45 bitrate=1209.0kbits/s speed=0.0667x    frame=  382 fps=2.0 q=69.0 size=    1839kB time=00:00:12.66 bitrate=1189.1kbits/s speed=0.0675x    frame=  383 fps=2.0 q=69.0 size=    1839kB time=00:00:12.70 bitrate=1185.3kbits/s speed=0.0674x    frame=  388 fps=2.0 q=69.0 size=    1839kB time=00:00:12.91 bitrate=1166.1kbits/s speed=0.0679x    frame=  393 fps=2.1 q=69.0 size=    1839kB time=00:00:13.12 bitrate=1147.6kbits/s speed=0.0687x    frame=  394 fps=2.1 q=69.0 size=    1839kB time=00:00:13.16 bitrate=1143.9kbits/s speed=0.0685x    frame=  399 fps=2.1 q=69.0 size=    1839kB time=00:00:13.37 bitrate=1126.1kbits/s speed=0.0691x    frame=  403 fps=2.1 q=69.0 size=    1839kB time=00:00:13.54 bitrate=1112.3kbits/s speed=0.0695x    frame=  408 fps=2.1 q=69.0 size=    1839kB time=00:00:13.75 bitrate=1095.4kbits/s speed=0.0699x    frame=  413 fps=2.1 q=69.0 size=    1839kB time=00:00:13.95 bitrate=1079.1kbits/s speed=0.0707x    frame=  414 fps=2.1 q=69.0 size=    1839kB time=00:00:14.00 bitrate=1075.9kbits/s speed=0.0705x    frame=  419 fps=2.1 q=69.0 size=    1839kB time=00:00:14.20 bitrate=1060.1kbits/s speed=0.0713x    frame=  420 fps=2.1 q=69.0 size=    1839kB time=00:00:14.25 bitrate=1057.0kbits/s speed=0.0711x    frame=  425 fps=2.1 q=69.0 size=    1839kB time=00:00:14.45 bitrate=1041.8kbits/s speed=0.0716x    frame=  430 fps=2.1 q=69.0 size=    1839kB time=00:00:14.66 bitrate=1027.0kbits/s speed=0.0723x    frame=  431 fps=2.1 q=69.0 size=    1839kB time=00:00:14.70 bitrate=1024.1kbits/s speed=0.0721x    frame=  434 fps=2.1 q=69.0 size=    1839kB time=00:00:14.83 bitrate=1015.5kbits/s speed=0.0724x    frame=  437 fps=2.1 q=69.0 size=    1839kB time=00:00:14.95 bitrate=1007.0kbits/s speed=0.0727x    frame=  439 fps=2.1 q=69.0 size=    1839kB time=00:00:15.04 bitrate=1001.4kbits/s speed=0.0725x    frame=  444 fps=2.1 q=69.0 size=    1839kB time=00:00:15.25 bitrate= 987.7kbits/s speed=0.0733x    frame=  446 fps=2.1 q=69.0 size=    2054kB time=00:00:15.33 bitrate=1097.5kbits/s speed=0.0734x    frame=  450 fps=2.1 q=69.0 size=    2054kB time=00:00:15.50 bitrate=1085.7kbits/s speed=0.0738x    frame=  454 fps=2.1 q=69.0 size=    2054kB time=00:00:15.66 bitrate=1074.1kbits/s speed=0.0742x    frame=  459 fps=2.2 q=69.0 size=    2054kB time=00:00:15.87 bitrate=1060.0kbits/s speed=0.0746x    frame=  463 fps=2.2 q=69.0 size=    2054kB time=00:00:16.04 bitrate=1049.0kbits/s speed=0.075x    frame=  466 fps=2.2 q=69.0 size=    2054kB time=00:00:16.16 bitrate=1040.9kbits/s speed=0.0752x    frame=  468 fps=2.2 q=69.0 size=    2054kB time=00:00:16.25 bitrate=1035.6kbits/s speed=0.0753x    frame=  471 fps=2.2 q=69.0 size=    2054kB time=00:00:16.37 bitrate=1027.7kbits/s speed=0.0756x    frame=  474 fps=2.2 q=69.0 size=    2054kB time=00:00:16.50 bitrate=1019.9kbits/s speed=0.076x    frame=  475 fps=2.2 q=69.0 size=    2054kB time=00:00:16.54 bitrate=1017.3kbits/s speed=0.0759x    frame=  476 fps=2.2 q=69.0 size=    2054kB time=00:00:16.58 bitrate=1014.8kbits/s speed=0.0759x    frame=  480 fps=2.2 q=69.0 size=    2054kB time=00:00:16.75 bitrate=1004.7kbits/s speed=0.0762x    frame=  484 fps=2.2 q=69.0 size=    2054kB time=00:00:16.91 bitrate= 994.8kbits/s speed=0.0765x    frame=  489 fps=2.2 q=68.0 size=    2054kB time=00:00:17.12 bitrate= 982.7kbits/s speed=0.0769x    frame=  491 fps=2.2 q=68.0 size=    2054kB time=00:00:17.20 bitrate= 977.9kbits/s speed=0.0771x    frame=  494 fps=2.2 q=68.0 size=    2054kB time=00:00:17.33 bitrate= 970.9kbits/s speed=0.0766x    frame=  499 fps=2.2 q=68.0 size=    2054kB time=00:00:17.54 bitrate= 959.3kbits/s speed=0.0773x    frame=  500 fps=2.1 q=-1.0 Lsize=    2330kB time=00:00:20.70 bitrate= 921.5kbits/s speed=0.0858x    
video:2325kB audio:0kB subtitle:0kB other streams:0kB global headers:0kB muxing overhead: 0.185341%
bench: utime=727.580s
bench: maxrss=2817416kB
[libx264 @ 0x45d01c0] frame I:3     Avg QP:46.54  size: 12176
[libx264 @ 0x45d01c0] frame P:268   Avg QP:50.92  size:  8272
[libx264 @ 0x45d01c0] frame B:229   Avg QP:50.85  size:   554
[libx264 @ 0x45d01c0] consecutive B-frames: 36.2%  7.6% 18.0% 17.6% 11.0%  9.6%  0.0%  0.0%  0.0%
[libx264 @ 0x45d01c0] mb I  I16..4: 43.8% 56.1%  0.1%
[libx264 @ 0x45d01c0] mb P  I16..4: 14.9%  2.9%  0.0%  P16..4: 18.1%  0.0%  0.0%  0.0%  0.0%    skip:64.0%
[libx264 @ 0x45d01c0] mb B  I16..4:  0.0%  0.0%  0.0%  B16..8:  1.2%  0.0%  0.0%  direct: 0.0%  skip:98.7%  L0:57.7% L1:41.5% BI: 0.7%
[libx264 @ 0x45d01c0] final ratefactor: 61.72
[libx264 @ 0x45d01c0] 8x8 transform intra:18.9% inter:92.3%
[libx264 @ 0x45d01c0] direct mvs  spatial:99.1% temporal:0.9%
[libx264 @ 0x45d01c0] coded y,uvDC,uvAC intra: 0.7% 1.5% 0.0% inter: 0.0% 0.0% 0.0%
[libx264 @ 0x45d01c0] i16 v,h,dc,p: 94%  5%  1%  0%
[libx264 @ 0x45d01c0] i8 v,h,dc,ddl,ddr,vr,hd,vl,hu: 12%  5% 79%  1%  1%  0%  1%  0%  1%
[libx264 @ 0x45d01c0] i4 v,h,dc,ddl,ddr,vr,hd,vl,hu: 32% 12% 16% 11% 10%  5%  5%  3%  6%
[libx264 @ 0x45d01c0] i8c dc,h,v,p: 100%  0%  0%  0%
[libx264 @ 0x45d01c0] Weighted P-Frames: Y:1.5% UV:1.1%
[libx264 @ 0x45d01c0] ref P L0: 20.8%  0.3% 21.2%  8.4%  7.6%  7.4%  7.7%  2.9%  3.0%  3.0%  3.0%  3.0%  3.0%  3.2%  3.7%  1.7%
[libx264 @ 0x45d01c0] ref B L0: 76.7% 13.4%  5.1%  1.6%  0.9%  0.7%  0.4%  0.2%  0.1%  0.2%  0.2%  0.3%  0.1%  0.1%  0.0%
[libx264 @ 0x45d01c0] ref B L1: 92.7%  7.3%
[libx264 @ 0x45d01c0] kb/s:914.04
